<mxfile host="Electron" modified="2024-04-08T16:49:59.354Z" agent="Mozilla/5.0 (Windows NT 10.0; Win64; x64) AppleWebKit/537.36 (KHTML, like Gecko) draw.io/24.1.0 Chrome/120.0.6099.109 Electron/28.1.0 Safari/537.36" etag="rs6y1gR3zBW1BrOJ3NHa" version="24.1.0" type="device">
  <diagram name="Page-1" id="lFyGAIhUyJv2bzV9phdg">
    <mxGraphModel dx="1185" dy="683" grid="1" gridSize="10" guides="1" tooltips="1" connect="1" arrows="1" fold="1" page="1" pageScale="1" pageWidth="850" pageHeight="1100" math="0" shadow="0">
      <root>
        <mxCell id="0" />
        <mxCell id="1" parent="0" />
        <mxCell id="odgSkN803Wpso9lfz5G1-4" value="" style="group;movable=1;resizable=1;rotatable=1;deletable=1;editable=1;locked=0;connectable=1;" parent="1" connectable="0" vertex="1">
          <mxGeometry x="270" y="70" width="392.5" height="640" as="geometry" />
        </mxCell>
        <mxCell id="odgSkN803Wpso9lfz5G1-16" value="" style="group" parent="odgSkN803Wpso9lfz5G1-4" connectable="0" vertex="1">
          <mxGeometry width="392.5" height="640" as="geometry" />
        </mxCell>
        <mxCell id="odgSkN803Wpso9lfz5G1-1" value="" style="rounded=0;whiteSpace=wrap;html=1;align=center;" parent="odgSkN803Wpso9lfz5G1-16" vertex="1">
          <mxGeometry x="-20" y="60" width="400" height="540" as="geometry" />
        </mxCell>
        <mxCell id="odgSkN803Wpso9lfz5G1-15" value="RMS" style="text;align=center;fontStyle=1;verticalAlign=middle;spacingLeft=3;spacingRight=3;strokeColor=none;rotatable=0;points=[[0,0.5],[1,0.5]];portConstraint=eastwest;html=1;" parent="odgSkN803Wpso9lfz5G1-16" vertex="1">
          <mxGeometry x="150" y="60" width="60" height="26" as="geometry" />
        </mxCell>
        <mxCell id="odgSkN803Wpso9lfz5G1-20" value="Batch export&lt;br&gt;historical reports" style="ellipse;whiteSpace=wrap;html=1;fillColor=#f5f5f5;" parent="odgSkN803Wpso9lfz5G1-16" vertex="1">
          <mxGeometry x="218.75" y="500" width="120" height="60" as="geometry" />
        </mxCell>
        <mxCell id="odgSkN803Wpso9lfz5G1-21" value="Search historical reports" style="ellipse;whiteSpace=wrap;html=1;fillColor=#f5f5f5;" parent="odgSkN803Wpso9lfz5G1-16" vertex="1">
          <mxGeometry x="192.5" y="270" width="172.5" height="60" as="geometry" />
        </mxCell>
        <mxCell id="odgSkN803Wpso9lfz5G1-19" value="View historical reports" style="ellipse;whiteSpace=wrap;html=1;fillColor=#f5f5f5;" parent="odgSkN803Wpso9lfz5G1-16" vertex="1">
          <mxGeometry x="20" y="313" width="172.5" height="60" as="geometry" />
        </mxCell>
        <mxCell id="GU-G8UStEZxknHhTSo-F-2" value="Capture data of&lt;br&gt;the previous day" style="ellipse;whiteSpace=wrap;html=1;fillColor=#f5f5f5;" parent="odgSkN803Wpso9lfz5G1-16" vertex="1">
          <mxGeometry x="210" y="110" width="142.5" height="60" as="geometry" />
        </mxCell>
        <mxCell id="y-IMFPSEGrswJsFMX-SH-1" value="View statistical charts&lt;br&gt;of a specific day" style="ellipse;whiteSpace=wrap;html=1;fillColor=#f5f5f5;" parent="odgSkN803Wpso9lfz5G1-16" vertex="1">
          <mxGeometry x="31.25" y="130" width="150" height="60" as="geometry" />
        </mxCell>
        <mxCell id="1B3VqN_ccdol-WtEkGS8-5" value="Export a historical report" style="ellipse;whiteSpace=wrap;html=1;fillColor=#f5f5f5;" parent="odgSkN803Wpso9lfz5G1-16" vertex="1">
          <mxGeometry x="26.25" y="440" width="160" height="50" as="geometry" />
        </mxCell>
        <mxCell id="GCljrcbgMl9eNR7EpRyx-1" value="&amp;lt;&amp;lt;include&amp;gt;&amp;gt;" style="html=1;verticalAlign=bottom;endArrow=open;dashed=1;endSize=8;curved=0;rounded=0;entryX=0.5;entryY=1;entryDx=0;entryDy=0;exitX=0.5;exitY=0;exitDx=0;exitDy=0;" parent="odgSkN803Wpso9lfz5G1-16" source="1B3VqN_ccdol-WtEkGS8-5" target="odgSkN803Wpso9lfz5G1-19" edge="1">
          <mxGeometry x="-0.303" y="-6" relative="1" as="geometry">
            <mxPoint x="90" y="730" as="sourcePoint" />
            <mxPoint x="10" y="730" as="targetPoint" />
            <mxPoint as="offset" />
          </mxGeometry>
        </mxCell>
        <mxCell id="GCljrcbgMl9eNR7EpRyx-7" value="&amp;lt;&amp;lt;include&amp;gt;&amp;gt;" style="html=1;verticalAlign=bottom;endArrow=open;dashed=1;endSize=8;curved=0;rounded=0;entryX=0.5;entryY=1;entryDx=0;entryDy=0;exitX=0.5;exitY=0;exitDx=0;exitDy=0;" parent="odgSkN803Wpso9lfz5G1-16" source="odgSkN803Wpso9lfz5G1-20" target="odgSkN803Wpso9lfz5G1-21" edge="1">
          <mxGeometry x="-0.3827" y="-5" relative="1" as="geometry">
            <mxPoint x="109" y="403" as="sourcePoint" />
            <mxPoint x="104" y="354" as="targetPoint" />
            <mxPoint as="offset" />
          </mxGeometry>
        </mxCell>
        <mxCell id="soRtDoO4CU606YjhyfmL-1" value="View statistical charts&lt;br&gt;of a specific date range" style="ellipse;whiteSpace=wrap;html=1;fillColor=#f5f5f5;" parent="odgSkN803Wpso9lfz5G1-16" vertex="1">
          <mxGeometry x="70" y="200" width="160" height="60" as="geometry" />
        </mxCell>
        <mxCell id="odgSkN803Wpso9lfz5G1-5" value="Supervisor" style="shape=umlActor;verticalLabelPosition=bottom;verticalAlign=top;html=1;strokeWidth=2;" parent="1" vertex="1">
          <mxGeometry x="150" y="310" width="30" height="60" as="geometry" />
        </mxCell>
        <mxCell id="odgSkN803Wpso9lfz5G1-11" style="edgeStyle=orthogonalEdgeStyle;rounded=0;orthogonalLoop=1;jettySize=auto;html=1;exitX=0.5;exitY=0;exitDx=0;exitDy=0;exitPerimeter=0;endArrow=block;endFill=0;strokeWidth=1;curved=0;strokeColor=default;targetPerimeterSpacing=0;endSize=12;startSize=6;" parent="1" source="odgSkN803Wpso9lfz5G1-9" edge="1">
          <mxGeometry relative="1" as="geometry">
            <mxPoint x="165" y="400" as="targetPoint" />
          </mxGeometry>
        </mxCell>
        <mxCell id="odgSkN803Wpso9lfz5G1-9" value="Administrator" style="shape=umlActor;verticalLabelPosition=bottom;verticalAlign=top;html=1;strokeWidth=2;" parent="1" vertex="1">
          <mxGeometry x="150" y="540" width="30" height="60" as="geometry" />
        </mxCell>
        <mxCell id="odgSkN803Wpso9lfz5G1-25" value="" style="endArrow=none;html=1;rounded=0;entryX=0;entryY=0.5;entryDx=0;entryDy=0;endFill=0;exitX=0.5;exitY=0.5;exitDx=0;exitDy=0;exitPerimeter=0;" parent="1" source="odgSkN803Wpso9lfz5G1-5" target="odgSkN803Wpso9lfz5G1-21" edge="1">
          <mxGeometry width="50" height="50" relative="1" as="geometry">
            <mxPoint x="210" y="280" as="sourcePoint" />
            <mxPoint x="270" y="200" as="targetPoint" />
          </mxGeometry>
        </mxCell>
        <mxCell id="odgSkN803Wpso9lfz5G1-28" value="" style="endArrow=none;html=1;rounded=0;entryX=0;entryY=0.5;entryDx=0;entryDy=0;endFill=0;exitX=0.5;exitY=0.5;exitDx=0;exitDy=0;exitPerimeter=0;" parent="1" source="odgSkN803Wpso9lfz5G1-5" target="odgSkN803Wpso9lfz5G1-19" edge="1">
          <mxGeometry width="50" height="50" relative="1" as="geometry">
            <mxPoint x="210" y="290" as="sourcePoint" />
            <mxPoint x="270" y="280" as="targetPoint" />
          </mxGeometry>
        </mxCell>
        <mxCell id="lm0lmkRSUGXiiMSDVH5E-2" value="" style="endArrow=none;html=1;rounded=0;entryX=0;entryY=0.5;entryDx=0;entryDy=0;endFill=0;exitX=0.5;exitY=0.5;exitDx=0;exitDy=0;exitPerimeter=0;" parent="1" source="odgSkN803Wpso9lfz5G1-9" target="odgSkN803Wpso9lfz5G1-20" edge="1">
          <mxGeometry width="50" height="50" relative="1" as="geometry">
            <mxPoint x="130" y="277" as="sourcePoint" />
            <mxPoint x="300" y="361" as="targetPoint" />
          </mxGeometry>
        </mxCell>
        <mxCell id="GU-G8UStEZxknHhTSo-F-4" value="" style="endArrow=none;html=1;rounded=0;entryX=0.5;entryY=0.5;entryDx=0;entryDy=0;endFill=0;exitX=1;exitY=0.5;exitDx=0;exitDy=0;entryPerimeter=0;" parent="1" source="GU-G8UStEZxknHhTSo-F-2" target="VhTkBpPRhVF8uZzV8rm4-1" edge="1">
          <mxGeometry width="50" height="50" relative="1" as="geometry">
            <mxPoint x="175" y="535" as="sourcePoint" />
            <mxPoint x="690" y="380" as="targetPoint" />
          </mxGeometry>
        </mxCell>
        <mxCell id="VhTkBpPRhVF8uZzV8rm4-1" value="&lt;span style=&quot;background-color: rgb(255, 255, 255);&quot;&gt;Timed Event&lt;/span&gt;" style="shape=umlActor;verticalLabelPosition=bottom;verticalAlign=top;html=1;strokeWidth=2;" parent="1" vertex="1">
          <mxGeometry x="690" y="190" width="30" height="60" as="geometry" />
        </mxCell>
        <mxCell id="y-IMFPSEGrswJsFMX-SH-2" value="" style="endArrow=none;html=1;rounded=0;entryX=0;entryY=0.5;entryDx=0;entryDy=0;endFill=0;exitX=0.5;exitY=0.5;exitDx=0;exitDy=0;exitPerimeter=0;" parent="1" source="odgSkN803Wpso9lfz5G1-5" target="y-IMFPSEGrswJsFMX-SH-1" edge="1">
          <mxGeometry width="50" height="50" relative="1" as="geometry">
            <mxPoint x="175" y="350" as="sourcePoint" />
            <mxPoint x="290" y="200" as="targetPoint" />
          </mxGeometry>
        </mxCell>
        <mxCell id="1B3VqN_ccdol-WtEkGS8-9" value="" style="endArrow=none;html=1;rounded=0;entryX=0;entryY=0.5;entryDx=0;entryDy=0;endFill=0;exitX=0.5;exitY=0.5;exitDx=0;exitDy=0;exitPerimeter=0;" parent="1" source="odgSkN803Wpso9lfz5G1-9" target="1B3VqN_ccdol-WtEkGS8-5" edge="1">
          <mxGeometry width="50" height="50" relative="1" as="geometry">
            <mxPoint x="175" y="540" as="sourcePoint" />
            <mxPoint x="491" y="540" as="targetPoint" />
          </mxGeometry>
        </mxCell>
        <mxCell id="soRtDoO4CU606YjhyfmL-3" value="" style="endArrow=none;html=1;rounded=0;entryX=0;entryY=0.5;entryDx=0;entryDy=0;endFill=0;exitX=0.5;exitY=0.5;exitDx=0;exitDy=0;exitPerimeter=0;" parent="1" source="odgSkN803Wpso9lfz5G1-5" target="soRtDoO4CU606YjhyfmL-1" edge="1">
          <mxGeometry width="50" height="50" relative="1" as="geometry">
            <mxPoint x="175" y="350" as="sourcePoint" />
            <mxPoint x="301" y="250" as="targetPoint" />
          </mxGeometry>
        </mxCell>
      </root>
    </mxGraphModel>
  </diagram>
</mxfile>
